<mxfile host="app.diagrams.net" agent="Mozilla/5.0 (Macintosh; Intel Mac OS X 10_15_7) AppleWebKit/537.36 (KHTML, like Gecko) Chrome/129.0.0.0 Safari/537.36" version="24.7.16">
  <diagram name="Page-1" id="FrAEAXTfQ6E1MDFGvOye">
    <mxGraphModel dx="1434" dy="1895" grid="1" gridSize="10" guides="1" tooltips="1" connect="1" arrows="1" fold="1" page="1" pageScale="1" pageWidth="850" pageHeight="1100" math="0" shadow="0">
      <root>
        <mxCell id="0" />
        <mxCell id="1" parent="0" />
        <mxCell id="J5SaElmw5ams9r6Q3LyK-1" value="&lt;b&gt;Client&lt;/b&gt;" style="rounded=1;whiteSpace=wrap;html=1;fillColor=#d5e8d4;strokeColor=none;" vertex="1" parent="1">
          <mxGeometry x="80" y="240" width="80" height="40" as="geometry" />
        </mxCell>
        <mxCell id="J5SaElmw5ams9r6Q3LyK-2" value="&lt;b&gt;MI&lt;/b&gt;" style="rounded=1;whiteSpace=wrap;html=1;fillColor=#d5e8d4;strokeColor=none;" vertex="1" parent="1">
          <mxGeometry x="280" y="240" width="80" height="40" as="geometry" />
        </mxCell>
        <mxCell id="J5SaElmw5ams9r6Q3LyK-3" value="" style="endArrow=none;dashed=1;html=1;dashPattern=1 3;strokeWidth=2;rounded=0;" edge="1" parent="1">
          <mxGeometry width="50" height="50" relative="1" as="geometry">
            <mxPoint x="360" y="560" as="sourcePoint" />
            <mxPoint x="360" y="40" as="targetPoint" />
          </mxGeometry>
        </mxCell>
        <UserObject label="SourceContext.create(conn, ProtocolState.REQUEST_READY, sourceConfiguration);" link="SourceContext.create(conn, ProtocolState.REQUEST_READY, sourceConfiguration);" id="J5SaElmw5ams9r6Q3LyK-7">
          <mxCell style="text;whiteSpace=wrap;fillColor=#f5f5f5;strokeColor=#666666;rotation=90;fontColor=#333333;" vertex="1" parent="1">
            <mxGeometry x="350" y="-50" width="470" height="30" as="geometry" />
          </mxCell>
        </UserObject>
        <mxCell id="J5SaElmw5ams9r6Q3LyK-8" value="&lt;b&gt;REQUEST_READY&lt;/b&gt;" style="rounded=1;whiteSpace=wrap;html=1;fillColor=#f8cecc;strokeColor=#b85450;glass=1;" vertex="1" parent="1">
          <mxGeometry x="560" y="240" width="120" height="40" as="geometry" />
        </mxCell>
        <mxCell id="J5SaElmw5ams9r6Q3LyK-9" value="" style="endArrow=none;dashed=1;html=1;dashPattern=1 3;strokeWidth=2;rounded=0;" edge="1" parent="1">
          <mxGeometry width="50" height="50" relative="1" as="geometry">
            <mxPoint x="620" y="560" as="sourcePoint" />
            <mxPoint x="620" y="-280" as="targetPoint" />
          </mxGeometry>
        </mxCell>
        <mxCell id="J5SaElmw5ams9r6Q3LyK-11" value="Calculation&lt;div&gt;Transport Latency&lt;/div&gt;" style="rounded=1;whiteSpace=wrap;html=1;fillColor=#fff2cc;strokeColor=none;gradientColor=none;glass=0;" vertex="1" parent="1">
          <mxGeometry x="680" y="-280" width="60" height="840" as="geometry" />
        </mxCell>
        <mxCell id="J5SaElmw5ams9r6Q3LyK-12" value="&lt;span style=&quot;color: rgb(0, 0, 0); font-family: Helvetica; font-size: 12px; font-style: normal; font-variant-ligatures: normal; font-variant-caps: normal; font-weight: 400; letter-spacing: normal; orphans: 2; text-align: center; text-indent: 0px; text-transform: none; widows: 2; word-spacing: 0px; -webkit-text-stroke-width: 0px; white-space: normal; background-color: rgb(251, 251, 251); text-decoration-thickness: initial; text-decoration-style: initial; text-decoration-color: initial; display: inline !important; float: none;&quot;&gt;requestArrivalTimestamp = System.currentTimeMillis();&lt;/span&gt;" style="text;whiteSpace=wrap;html=1;fillColor=#f5f5f5;fontColor=#333333;strokeColor=#666666;" vertex="1" parent="1">
          <mxGeometry x="560" y="-510" width="300" height="40" as="geometry" />
        </mxCell>
        <mxCell id="J5SaElmw5ams9r6Q3LyK-13" value="" style="endArrow=none;dashed=1;html=1;dashPattern=1 3;strokeWidth=2;rounded=0;entryX=0.5;entryY=1;entryDx=0;entryDy=0;" edge="1" parent="1" target="J5SaElmw5ams9r6Q3LyK-12">
          <mxGeometry width="50" height="50" relative="1" as="geometry">
            <mxPoint x="710" y="-280" as="sourcePoint" />
            <mxPoint x="760" y="-320" as="targetPoint" />
          </mxGeometry>
        </mxCell>
        <mxCell id="J5SaElmw5ams9r6Q3LyK-19" value="REQ_ARRIVAL_TIME, System.currentTimeMillis()" style="text;whiteSpace=wrap;rotation=0;" vertex="1" parent="1">
          <mxGeometry x="770" y="-390" width="270" height="40" as="geometry" />
        </mxCell>
        <mxCell id="J5SaElmw5ams9r6Q3LyK-20" value="" style="endArrow=none;dashed=1;html=1;dashPattern=1 3;strokeWidth=2;rounded=0;exitX=1;exitY=0.5;exitDx=0;exitDy=0;" edge="1" parent="1" source="J5SaElmw5ams9r6Q3LyK-58">
          <mxGeometry width="50" height="50" relative="1" as="geometry">
            <mxPoint x="1020" y="130" as="sourcePoint" />
            <mxPoint x="1540" y="260" as="targetPoint" />
          </mxGeometry>
        </mxCell>
        <mxCell id="J5SaElmw5ams9r6Q3LyK-21" value="REQ_FROM_CLIENT_READ_START_TIME, System.currentTimeMillis()" style="text;whiteSpace=wrap;" vertex="1" parent="1">
          <mxGeometry x="770" y="-370" width="390" height="40" as="geometry" />
        </mxCell>
        <mxCell id="J5SaElmw5ams9r6Q3LyK-22" value="" style="endArrow=none;html=1;strokeWidth=2;rounded=0;entryX=0.5;entryY=1;entryDx=0;entryDy=0;" edge="1" parent="1">
          <mxGeometry width="50" height="50" relative="1" as="geometry">
            <mxPoint x="771" y="260" as="sourcePoint" />
            <mxPoint x="771" y="-350" as="targetPoint" />
          </mxGeometry>
        </mxCell>
        <mxCell id="J5SaElmw5ams9r6Q3LyK-24" value="lastStateUpdatedTime = System.currentTimeMillis();" style="text;whiteSpace=wrap;fillColor=#f8cecc;strokeColor=none;rounded=1;" vertex="1" parent="1">
          <mxGeometry x="753" y="-450" width="287" height="30" as="geometry" />
        </mxCell>
        <mxCell id="J5SaElmw5ams9r6Q3LyK-25" value="" style="rounded=1;whiteSpace=wrap;html=1;fillColor=#f8cecc;strokeColor=none;" vertex="1" parent="1">
          <mxGeometry x="740" y="-280" width="30" height="540" as="geometry" />
        </mxCell>
        <mxCell id="J5SaElmw5ams9r6Q3LyK-29" value="updateLastStateUpdatedTime" style="text;whiteSpace=wrap;rotation=-90;fontStyle=1" vertex="1" parent="1">
          <mxGeometry x="660" y="-30" width="190" height="25" as="geometry" />
        </mxCell>
        <mxCell id="J5SaElmw5ams9r6Q3LyK-31" value="" style="endArrow=none;dashed=1;html=1;dashPattern=1 3;strokeWidth=2;rounded=0;exitX=0.5;exitY=0;exitDx=0;exitDy=0;entryX=0;entryY=1;entryDx=0;entryDy=0;" edge="1" parent="1" source="J5SaElmw5ams9r6Q3LyK-25" target="J5SaElmw5ams9r6Q3LyK-24">
          <mxGeometry width="50" height="50" relative="1" as="geometry">
            <mxPoint x="710" y="-270" as="sourcePoint" />
            <mxPoint x="760" y="-320" as="targetPoint" />
          </mxGeometry>
        </mxCell>
        <UserObject label="sourceConfiguration.getSourceConnections().useConnection(conn);" link="SourceContext.create(conn, ProtocolState.REQUEST_READY, sourceConfiguration);" id="J5SaElmw5ams9r6Q3LyK-38">
          <mxCell style="text;whiteSpace=wrap;fillColor=#f5f5f5;strokeColor=#666666;rotation=90;fontColor=#333333;" vertex="1" parent="1">
            <mxGeometry x="523" y="-26" width="536" height="30" as="geometry" />
          </mxCell>
        </UserObject>
        <mxCell id="J5SaElmw5ams9r6Q3LyK-42" value="" style="group" vertex="1" connectable="0" parent="1">
          <mxGeometry x="808" y="-280" width="30" height="540" as="geometry" />
        </mxCell>
        <mxCell id="J5SaElmw5ams9r6Q3LyK-40" value="" style="rounded=1;whiteSpace=wrap;html=1;fillColor=#f8cecc;strokeColor=none;" vertex="1" parent="J5SaElmw5ams9r6Q3LyK-42">
          <mxGeometry width="30" height="540" as="geometry" />
        </mxCell>
        <mxCell id="J5SaElmw5ams9r6Q3LyK-41" value="updateLastStateUpdatedTime" style="text;whiteSpace=wrap;rotation=-90;fontStyle=1" vertex="1" parent="J5SaElmw5ams9r6Q3LyK-42">
          <mxGeometry x="-80" y="250" width="190" height="25" as="geometry" />
        </mxCell>
        <mxCell id="J5SaElmw5ams9r6Q3LyK-43" value="" style="endArrow=none;dashed=1;html=1;dashPattern=1 3;strokeWidth=2;rounded=0;exitX=1;exitY=0.5;exitDx=0;exitDy=0;" edge="1" parent="1" source="J5SaElmw5ams9r6Q3LyK-8" target="J5SaElmw5ams9r6Q3LyK-35">
          <mxGeometry width="50" height="50" relative="1" as="geometry">
            <mxPoint x="680" y="260" as="sourcePoint" />
            <mxPoint x="1540" y="260" as="targetPoint" />
          </mxGeometry>
        </mxCell>
        <mxCell id="J5SaElmw5ams9r6Q3LyK-35" value="&lt;b&gt;REQUEST_HEAD&lt;/b&gt;" style="rounded=1;whiteSpace=wrap;html=1;fillColor=#f8cecc;strokeColor=#b85450;glass=1;" vertex="1" parent="1">
          <mxGeometry x="838" y="240" width="120" height="40" as="geometry" />
        </mxCell>
        <mxCell id="J5SaElmw5ams9r6Q3LyK-44" value="Calculation&lt;div&gt;Transport Latency&lt;/div&gt;" style="rounded=1;whiteSpace=wrap;html=1;fillColor=#fff2cc;strokeColor=none;gradientColor=none;glass=0;" vertex="1" parent="1">
          <mxGeometry x="958" y="-280" width="60" height="840" as="geometry" />
        </mxCell>
        <mxCell id="J5SaElmw5ams9r6Q3LyK-46" value="&lt;span style=&quot;color: rgb(0, 0, 0); font-family: Helvetica; font-size: 12px; font-style: normal; font-variant-ligatures: normal; font-variant-caps: normal; font-weight: 400; letter-spacing: normal; orphans: 2; text-align: center; text-indent: 0px; text-transform: none; widows: 2; word-spacing: 0px; -webkit-text-stroke-width: 0px; white-space: normal; background-color: rgb(251, 251, 251); text-decoration-thickness: initial; text-decoration-style: initial; text-decoration-color: initial; display: inline !important; float: none;&quot;&gt;chunkReadStartTime = System.currentTimeMillis()&lt;/span&gt;" style="text;whiteSpace=wrap;html=1;fillColor=#f5f5f5;fontColor=#333333;strokeColor=#666666;" vertex="1" parent="1">
          <mxGeometry x="783" y="593" width="273" height="30" as="geometry" />
        </mxCell>
        <mxCell id="J5SaElmw5ams9r6Q3LyK-54" value="" style="endArrow=none;dashed=1;html=1;dashPattern=1 3;strokeWidth=2;rounded=0;entryX=0.5;entryY=1;entryDx=0;entryDy=0;exitX=0.75;exitY=0;exitDx=0;exitDy=0;" edge="1" parent="1" source="J5SaElmw5ams9r6Q3LyK-46" target="J5SaElmw5ams9r6Q3LyK-44">
          <mxGeometry width="50" height="50" relative="1" as="geometry">
            <mxPoint x="958" y="700" as="sourcePoint" />
            <mxPoint x="1008" y="650" as="targetPoint" />
          </mxGeometry>
        </mxCell>
        <mxCell id="J5SaElmw5ams9r6Q3LyK-56" value="REQ_FROM_CLIENT_BODY_READ_START_TIME, chunkReadStartTime" style="text;whiteSpace=wrap;fillColor=#f5f5f5;fontColor=#333333;strokeColor=#666666;" vertex="1" parent="1">
          <mxGeometry x="688" y="637" width="400" height="30" as="geometry" />
        </mxCell>
        <mxCell id="J5SaElmw5ams9r6Q3LyK-57" value="" style="endArrow=none;dashed=1;html=1;dashPattern=1 3;strokeWidth=2;rounded=0;entryX=0.75;entryY=1;entryDx=0;entryDy=0;exitX=0.75;exitY=0;exitDx=0;exitDy=0;" edge="1" parent="1" source="J5SaElmw5ams9r6Q3LyK-56" target="J5SaElmw5ams9r6Q3LyK-46">
          <mxGeometry width="50" height="50" relative="1" as="geometry">
            <mxPoint x="987.5" y="670" as="sourcePoint" />
            <mxPoint x="987.5" y="630" as="targetPoint" />
          </mxGeometry>
        </mxCell>
        <mxCell id="J5SaElmw5ams9r6Q3LyK-59" value="" style="endArrow=none;dashed=1;html=1;dashPattern=1 3;strokeWidth=2;rounded=0;exitX=1;exitY=0.5;exitDx=0;exitDy=0;" edge="1" parent="1" source="J5SaElmw5ams9r6Q3LyK-35" target="J5SaElmw5ams9r6Q3LyK-58">
          <mxGeometry width="50" height="50" relative="1" as="geometry">
            <mxPoint x="958" y="260" as="sourcePoint" />
            <mxPoint x="1540" y="260" as="targetPoint" />
          </mxGeometry>
        </mxCell>
        <mxCell id="J5SaElmw5ams9r6Q3LyK-58" value="&lt;b&gt;REQUEST_BODY&lt;/b&gt;" style="rounded=1;whiteSpace=wrap;html=1;fillColor=#f8cecc;strokeColor=#b85450;glass=1;" vertex="1" parent="1">
          <mxGeometry x="1040" y="240" width="120" height="40" as="geometry" />
        </mxCell>
        <mxCell id="J5SaElmw5ams9r6Q3LyK-60" value="" style="group" vertex="1" connectable="0" parent="1">
          <mxGeometry x="1010" y="-280" width="30" height="540" as="geometry" />
        </mxCell>
        <mxCell id="J5SaElmw5ams9r6Q3LyK-61" value="" style="rounded=1;whiteSpace=wrap;html=1;fillColor=#f8cecc;strokeColor=none;" vertex="1" parent="J5SaElmw5ams9r6Q3LyK-60">
          <mxGeometry width="30" height="540" as="geometry" />
        </mxCell>
        <mxCell id="J5SaElmw5ams9r6Q3LyK-62" value="updateLastStateUpdatedTime" style="text;whiteSpace=wrap;rotation=-90;fontStyle=1" vertex="1" parent="J5SaElmw5ams9r6Q3LyK-60">
          <mxGeometry x="-80" y="250" width="190" height="25" as="geometry" />
        </mxCell>
      </root>
    </mxGraphModel>
  </diagram>
</mxfile>
